HIERARCHY
ROOT pelvis
{
  OFFSET 0 100 0
  CHANNELS 6 Xposition Yposition Zposition Zrotation Xrotation Yrotation
  JOINT pelvis_right_femur
  {
    OFFSET -10.78128 -3.44521 -0.5502486
    CHANNELS 3 Zrotation Xrotation Yrotation
    JOINT right_femur_tibia
    {
      OFFSET -0.8047443 -44.0398 -0.1307829
      CHANNELS 3 Zrotation Xrotation Yrotation
      JOINT right_tibia_foot
      {
        OFFSET 3.006224 -47.83518 -5
        CHANNELS 3 Zrotation Xrotation Yrotation
        End Site
        {
          OFFSET 0 -5 15
        }
      }
    }
  }
  JOINT pelvis_left_femur
  {
    OFFSET 10.78128 -3.44521 -0.5502486
    CHANNELS 3 Zrotation Xrotation Yrotation
    JOINT left_femur_tibia
    {
      OFFSET 0.8047443 -44.0398 -0.1307829
      CHANNELS 3 Zrotation Xrotation Yrotation
      JOINT left_tibia_foot
      {
        OFFSET -4.370144 -48.10324 -4.275266
        CHANNELS 3 Zrotation Xrotation Yrotation
        End Site
        {
          OFFSET 0 -5 15
        }
      }
    }
  }
  JOINT pelvis_spine1
  {
    OFFSET 0 6.468898 -3.129235
    CHANNELS 3 Zrotation Xrotation Yrotation
    JOINT spine1
    {
      OFFSET 0 23.15396 4.99043
      CHANNELS 3 Zrotation Xrotation Yrotation
      JOINT spine2
      {
        OFFSET 0 20.79997 -5.064912
        CHANNELS 3 Zrotation Xrotation Yrotation
        JOINT neck
        {
          OFFSET 0 14.38658 9.616178
          CHANNELS 3 Zrotation Xrotation Yrotation
          End Site
          {
            OFFSET 0 20 0
          }
        }
      }
      JOINT right_manubrium
      {
        OFFSET -5.722621 16.35077 3.967754
        CHANNELS 3 Zrotation Xrotation Yrotation
        JOINT right_clavicle
        {
          OFFSET -13.16364 1.694482 -4.693211
          CHANNELS 3 Zrotation Xrotation Yrotation
          JOINT right_humerus
          {
            OFFSET -28.5034 -0.3100689 -2.792744
            CHANNELS 3 Zrotation Xrotation Yrotation
            JOINT right_radius
            {
              OFFSET -25.15693 0.02248979 -1.271978
              CHANNELS 3 Zrotation Xrotation Yrotation
              End Site
              {
                OFFSET -15 0 0
              }
            }
          }
        }
      }
      JOINT left_manubrium
      {
        OFFSET 5.722621 16.35077 3.967754
        CHANNELS 3 Zrotation Xrotation Yrotation
        JOINT left_clavicle
        {
          OFFSET 13.16364 1.694482 -4.693211
          CHANNELS 3 Zrotation Xrotation Yrotation
          JOINT left_humerus
          {
            OFFSET 29.39168 -1.063119 -2.237045
            CHANNELS 3 Zrotation Xrotation Yrotation
            JOINT left_radius
            {
              OFFSET 24.59957 -0.9528479 0.9047498
              CHANNELS 3 Zrotation Xrotation Yrotation
              End Site
              {
                OFFSET 15 -0 -0
              }
            }
          }
        }
      }
    }
  }
}
MOTION
Frames: 15
Frame Time: 0.0416666666667
93.20137 107.4936 3110.134 0.7843634 -5.958342 -2.237235 0.2267527 -22.47074 -0.4653523 -0 22.23938 -0 -1.214542 2.87876 -6.226316 -5.185826 11.67171 -7.685341 -0 12.44686 -0 -1.778629 -18.27217 13.50753 -0.6777538 -1.304802 6.153048 -0.925227 15.17726 -5.733556 -0.02539342 22.05149 5.423832 6.958225 -13.89394 1.480915 2.538187 -21.20856 12.22644 87.89474 26.45314 -16.04656 -0 0 18.42079 -22.37501 9.366042 7.031336 6.404566 -27.10802 -10.82874 -90.06937 7.644369 20.8893 0 0 -12.29499 14.69552 12.57806 -6.834001
93.06315 106.2756 3116.285 1.035024 -5.091319 -1.732153 0.4476302 -25.00574 -0.6939874 -0 15.17017 -0 -0.3972436 2.303276 -6.658848 -5.395407 14.16435 -7.293375 -0 13.9281 -0 -2.464838 -19.24447 12.67405 -0.7855044 -1.250856 5.911621 -1.017248 15.08911 -5.689615 0.02373107 22.125 5.585738 7.134799 -13.98403 1.578633 2.65604 -20.70703 12.10296 87.92606 26.74251 -16.27843 -0 0 17.81358 -22.58696 9.335785 7.02588 6.757194 -27.20486 -10.79686 -89.63068 7.66498 19.63828 0 0 -13.20451 15.08894 12.56121 -7.417131
92.81063 105.0935 3122.82 1.140495 -4.372568 -1.294636 1.02223 -26.41712 -0.2864873 -0 10.66177 -0 0.333802 2.141756 -7.184772 -5.4806 16.1883 -6.892097 -0 17.03688 -0 -3.321839 -19.31873 11.94749 -0.7879471 -1.232632 5.778678 -1.002526 15.04644 -5.732678 0.06921811 22.16653 5.645464 7.096956 -14.22295 1.740058 2.525894 -20.53286 12.07355 88.17007 26.7112 -16.52016 -0 0 17.38977 -22.67527 9.335301 7.011479 6.858965 -27.23214 -10.74048 -89.37109 7.74328 19.01693 0 0 -13.83723 15.27567 12.63519 -7.758568
92.4373 104.1899 3129.745 0.9960044 -3.941802 -0.9444284 2.027563 -26.48937 0.7626639 -0 9.014816 -0 0.7625008 2.08413 -7.724482 -5.295336 17.56147 -6.600925 -0 21.87171 -0 -4.487915 -18.29403 11.34634 -0.6778726 -1.252867 5.780895 -0.8953449 15.08315 -5.850982 0.1041958 22.17914 5.581804 6.862608 -14.52868 1.911571 2.180976 -20.69365 12.14389 88.59064 26.34568 -16.75037 -0 0 17.21197 -22.63506 9.365513 6.984628 6.68872 -27.20762 -10.70296 -89.33373 7.873251 19.11386 0 0 -14.0891 15.20977 12.78746 -7.770364
91.94666 103.7737 3136.98 0.5645907 -3.833495 -0.7520508 3.412137 -25.08879 2.301477 -0 9.956321 -0 0.7739394 1.677628 -8.175924 -4.780354 17.88164 -6.458142 -0 28.38384 -0 -5.880135 -16.14347 10.97213 -0.4682351 -1.310079 5.928198 -0.7171052 15.20672 -6.022766 0.1249429 22.16099 5.39002 6.462361 -14.83567 2.052902 1.673866 -21.18402 12.30153 89.11435 25.68321 -16.90934 -0 0 17.34112 -22.4761 9.433486 6.960341 6.259575 -27.1325 -10.69735 -89.54376 8.046227 19.95979 0 0 -13.88379 14.86458 12.99394 -7.40292
91.36136 103.9625 3144.347 -0.07076115 -4.033317 -0.8222577 4.932947 -22.27505 4.004581 -0 12.53673 -0 0.3756643 0.5158127 -8.462282 -4.025501 16.68852 -6.433283 -0 36.29724 -0 -7.189317 -13.17608 11.01381 -0.1928693 -1.400085 6.206682 -0.4912684 15.39182 -6.222521 0.1307141 22.10281 5.086765 5.939885 -15.10619 2.143821 1.072506 -21.97282 12.51638 89.64267 24.81122 -16.9244 -0 0 17.80979 -22.22101 9.549335 6.968127 5.627477 -26.99726 -10.70404 -89.9902 8.247106 21.4884 0 0 -13.22555 14.24488 13.21712 -6.664388
90.7263 104.7378 3151.587 -0.6933458 -4.542299 -1.231648 6.179611 -18.25387 5.398493 -0 15.39853 -0 -0.4099426 -1.552579 -8.484685 -3.256877 13.66303 -6.551802 -0 44.94023 -0 -8.090943 -10.09407 11.62308 0.1026912 -1.516973 6.57995 -0.2397553 15.58896 -6.426851 0.1226262 21.99228 4.7076 5.349279 -15.32951 2.182048 0.4504422 -22.99305 12.74781 90.07761 23.84735 -16.74581 -0 0 18.59729 -21.9014 9.720076 7.03938 4.883447 -26.7952 -10.68471 -90.61894 8.454291 23.52609 0 0 -12.22075 13.39567 13.41144 -5.623978
90.10518 105.9405 3158.417 -1.017734 -5.330693 -1.944626 6.723287 -13.29951 5.983458 -0 17.2235 -0 -1.598037 -4.27447 -8.044793 -2.740264 8.718981 -6.892677 -0 53.06317 -0 -8.454616 -7.749333 12.70039 0.377669 -1.652467 7.001257 0.02050058 15.7447 -6.618454 0.1027042 21.82297 4.296761 4.743074 -15.51803 2.179596 -0.1323846 -24.15404 12.95849 90.35318 22.90496 -16.36686 -0 0 19.62996 -21.54957 9.943165 7.191909 4.123604 -26.52919 -10.60209 -91.35029 8.646227 25.84362 0 0 -11.03206 12.3983 13.53897 -4.394782
89.56633 107.3023 3164.652 -0.8243868 -6.184548 -2.775526 6.360736 -7.758983 5.59626 -0 17.11994 -0 -2.964075 -7.032415 -6.96865 -2.60842 2.037356 -7.335262 -0 58.8879 -0 -8.414722 -6.646561 13.82712 0.6068959 -1.795589 7.428067 0.2783591 15.81897 -6.786251 0.07336202 21.59996 3.895793 4.160321 -15.6994 2.157958 -0.6430342 -25.36728 13.12452 90.4486 22.06825 -15.81513 -0 0 20.80814 -21.19187 10.20511 7.424073 3.420076 -26.20816 -10.43178 -92.10787 8.808377 28.23102 0 0 -9.804649 11.35157 13.58322 -3.103755
89.14422 108.5092 3170.345 -0.1840501 -6.677261 -3.507119 5.364579 -2.126637 4.773522 -0 15.12574 -0 -3.842993 -9.223554 -5.40281 -2.585848 -5.77649 -7.380068 -0 60.50297 -0 -8.275584 -6.557689 14.63564 0.7820112 -1.935008 7.83101 0.5272849 15.79192 -6.924301 0.03732918 21.33773 3.534861 3.621447 -15.90502 2.140922 -1.076177 -26.56721 13.23653 90.38029 21.38244 -15.13192 -0 0 22.03803 -20.84725 10.48755 7.721219 2.810044 -25.84181 -10.16434 -92.8374 8.936459 30.54417 0 0 -8.6278 10.34407 13.55089 -1.859127
88.80562 109.2766 3175.771 0.3855037 -6.58215 -4.122565 4.497563 2.944089 4.306171 -0 12.42693 -0 -3.746306 -10.76188 -3.900606 -1.97491 -13.39304 -6.487984 -0 56.77608 -0 -8.124397 -6.760683 15.3905 0.9069096 -2.061452 8.193338 0.7634468 15.66213 -7.030775 -0.0013089 21.05526 3.229998 3.129945 -16.16354 2.150283 -1.447464 -27.71453 13.29463 90.18805 20.85624 -14.35905 -0 0 23.24502 -20.53049 10.77518 8.065837 2.302161 -25.43838 -9.80173 -93.50699 9.037803 32.70161 0 0 -7.545398 9.437147 13.46503 -0.7347205
88.49721 109.4149 3181.192 0.3716863 -6.311859 -4.771664 4.357956 7.091418 4.13978 -0 10.36072 -0 -3.183458 -12.11269 -2.912749 -0.5066981 -19.15022 -4.915579 -0 48.54452 -0 -7.672526 -6.8703 16.67649 0.9907899 -2.166172 8.500365 0.9798981 15.44562 -7.104924 -0.03512706 20.77758 2.989389 2.684925 -16.49486 2.20495 -1.780432 -28.77089 13.30256 89.92934 20.47849 -13.54727 -0 0 24.35363 -20.26095 11.05523 8.437824 1.894997 -25.0111 -9.360147 -94.0895 9.130043 34.6263 0 0 -6.594016 8.676861 13.35874 0.2108535
88.22276 108.9122 3186.686 -0.08992005 -6.140841 -5.505954 4.677933 10.4919 3.644368 -0 9.306785 -0 -3.05963 -13.78249 -2.181856 1.135523 -22.81787 -3.639709 -0 38.27583 -0 -6.847712 -6.92073 18.1595 1.042664 -2.238009 8.729294 1.159683 15.18309 -7.14462 -0.05290325 20.5427 2.821913 2.298245 -16.89555 2.317822 -2.090622 -29.66495 13.26793 89.68274 20.23615 -12.7798 -0 0 25.25854 -20.06853 11.30702 8.802113 1.59224 -24.59141 -8.884356 -94.54576 9.23468 36.18419 0 0 -5.827813 8.116699 13.27352 0.9042276
88.03264 107.9475 3192.29 -0.5873847 -5.503062 -6.258447 4.909384 13.14561 2.952987 -0 9.1155 -0 -3.391497 -15.79368 -1.255503 2.450741 -25.64909 -2.875831 -0 28.1784 -0 -5.88022 -6.688335 18.85586 1.068942 -2.267444 8.85824 1.281676 14.93445 -7.149303 -0.04571308 20.3919 2.735492 1.995025 -17.32832 2.487503 -2.375772 -30.31041 13.20636 89.52869 20.1183 -12.15998 -0 0 25.85513 -19.97826 11.49944 9.10815 1.398329 -24.22584 -8.444685 -94.84011 9.362686 37.23022 0 0 -5.288912 7.804129 13.24761 1.277134
87.96252 106.7498 3198.131 -0.8932339 -4.254475 -6.970967 4.768831 14.9526 2.511236 -0 9.859792 -0 -3.657639 -17.38652 -0.2168476 3.234614 -27.87893 -2.411867 -0 19.89077 -0 -4.933723 -6.108082 18.62837 1.073773 -2.256496 8.888647 1.338296 14.74829 -7.126102 -0.01698918 20.34065 2.726442 1.796968 -17.72868 2.687914 -2.613347 -30.66782 13.14002 89.49943 20.10877 -11.75764 -0 0 26.11529 -19.98287 11.60713 9.313037 1.305887 -23.95444 -8.105314 -94.97229 9.498701 37.72953 0 0 -4.969708 7.737008 13.28987 1.330484
